<svg width="32" height="32" viewBox="0 0 32 32" fill="none" xmlns="http://www.w3.org/2000/svg">
  <rect width="32" height="32" rx="6" fill="#33C3F0"/>
  <path d="M10 8.5C10 8.22386 10.2239 8 10.5 8H15.5C15.7761 8 16 8.22386 16 8.5V9.5C16 9.77614 15.7761 10 15.5 10H12V18C12 20.2091 13.7909 22 16 22H16.5C16.7761 22 17 22.2239 17 22.5V23.5C17 23.7761 16.7761 24 16.5 24H16C12.6863 24 10 21.3137 10 18V8.5Z" fill="white"/>
  <path d="M18 8.5C18 8.22386 18.2239 8 18.5 8H22.5C22.7761 8 23 8.22386 23 8.5V9.5C23 9.77614 22.7761 10 22.5 10H19V18C19 19.1046 19.8954 20 21 20H22.5C22.7761 20 23 20.2239 23 20.5V21.5C23 21.7761 22.7761 22 22.5 22H21C18.7909 22 17 20.2091 17 18V8.5Z" fill="white"/>
</svg>